<svg width="17" height="20" viewBox="0 0 17 20" fill="none" xmlns="http://www.w3.org/2000/svg">
<path d="M2.38574 3.76953L3.25113 17.6157C3.29223 18.4157 3.8742 19.0003 4.63574 19.0003H12.5973C13.3618 19.0003 13.933 18.4157 13.9819 17.6157L14.8473 3.76953" stroke="#FF4141" stroke-linecap="round" stroke-linejoin="round"/>
<path d="M1 3.76953H16.2308H1Z" fill="black"/>
<path d="M1 3.76953H16.2308" stroke="#FF4141" stroke-miterlimit="10" stroke-linecap="round"/>
<path d="M5.84615 3.76924V2.03847C5.84575 1.90198 5.87234 1.76676 5.92439 1.64059C5.97643 1.51442 6.05291 1.39978 6.14942 1.30327C6.24593 1.20676 6.36057 1.13028 6.48674 1.07824C6.61291 1.02619 6.74813 0.999605 6.88462 1H10.3462C10.4826 0.999605 10.6179 1.02619 10.744 1.07824C10.8702 1.13028 10.9848 1.20676 11.0813 1.30327C11.1779 1.39978 11.2543 1.51442 11.3064 1.64059C11.3584 1.76676 11.385 1.90198 11.3846 2.03847V3.76924M8.61538 6.53847V16.2308M5.5 6.53847L5.84615 16.2308M11.7308 6.53847L11.3846 16.2308" stroke="#FF4141" stroke-linecap="round" stroke-linejoin="round"/>
</svg>
